<svg width="1440" height="500" viewBox="0 0 1440 500" fill="none" xmlns="http://www.w3.org/2000/svg">
<path d="M855.743 121.774L808.216 0L746.608 43.3488L666 88.0165L582.5 173.967L489.172 235.275L325.469 488.893L808.216 483.124V460.291V435.473L917.351 392.786V298.809L863.224 200.529L855.743 121.774Z" fill="white"/>
<path d="M855.743 121.774L808.216 0L746.608 43.3488L666 88.0165L582.5 173.967L489.172 235.275L325.469 488.893L808.216 483.124V460.291V435.473L917.351 392.786V298.809L863.224 200.529L855.743 121.774Z" fill="url(#paint0_linear)"/>
<path d="M792.814 22.1707L808.216 0L824.546 28.0079L832.656 30.4791V34.9272L856.623 37.7234L864.942 48.041L884.848 61.8796L890.576 70.5454L899.309 89.3448L902.83 116.81L930.452 133.411L949.061 157.718L1002.23 171.741L1055.97 230.311L1093.38 273.66L1137.82 335.539L1190.63 374.917L1135.67 413.509L1210.87 500H661.676L746.385 429.691L695.121 457.644L714.043 441.43L679.278 457.644L708.322 435.142L646.714 460.291L670.147 429.691L585.985 460.291L725.485 401.721L745.288 378.557L762.89 360.688L750.568 346.79L703.042 313.369L749.688 269.358L721.524 266.38L732.086 250.479L710.963 246.195L725.485 235.606L765.499 222.369L725.485 216.082L762.89 171.741L738.687 178.69L683.239 194.904L714.043 157.718L762.89 120.781L732.086 129.715L745.288 106.201L786.653 70.5454L781.813 63.2032L765.499 61.8796L784.453 54.9305L792.814 46.6578L788.739 39.7088L792.814 34.9272L775.562 42.1998L765.499 46.6578L781.813 34.9272L790.174 25.8107L792.814 22.1707Z" fill="#065564"/>
<path d="M1076.09 260.868L1076.36 172.733L1047.7 195.235L1011.47 225.769L968.96 218.068L940.99 275.976L916.003 320.648L869.013 346.459L826.871 399.404L773.169 419.259L759.37 492.656L1047.7 489.014V474.598V458.929L1112.88 431.977V372.643L1080.55 310.592L1076.09 260.868Z" fill="white"/>
<path d="M1076.09 260.868L1076.36 172.733L1047.7 195.235L1011.47 225.769L968.96 218.068L940.99 275.976L916.003 320.648L869.013 346.459L826.871 399.404L773.169 419.259L759.37 492.656L1047.7 489.014V474.598V458.929L1112.88 431.977V372.643L1080.55 310.592L1076.09 260.868Z" fill="url(#paint1_linear)"/>
<path d="M1062.16 197.161L1076.36 172.733L1095.76 199.537L1107.32 197.161L1109.18 201.668L1108.44 206.155L1113.29 227.002L1118.51 233.516L1128.95 228.326L1135.94 236.598L1142.27 248.468L1156.92 272.005L1165.87 272.998L1182.28 293.845L1218.08 325.612L1264.32 334.547L1307.14 344.805L1338 339.51L1368 371.939L1440 392.562V422.727V499.669H1368H970.096L994.328 383.852L998.998 376.241H1017.81L1005.17 371.939H967.841L1005.17 360.688L1012.97 348.114L1005.17 344.805L1021.17 334.878L1026.76 325.612L1050.26 329.252L1036.46 314.692L982.85 320.412L1029 303.111L1005.17 300.794L1038.7 287.889L1026.76 280.94L1050.26 272.005L1036.46 265.718L1050.26 252.151L1060.33 250.166L1041.31 243.547L1050.26 233.516L1038.7 228.326L1050.26 218.399L1058.46 217.075L1062.16 213.766L1072.64 210.866H1050.26L1066.3 201.668L1069.92 197.161V192.588L1062.16 197.161Z" fill="#0B6476"/>
<path d="M438.75 94.6401L339.991 202.847L105.5 371.901L0.5 496.473H780.012L754.256 480.683L634.332 416.448L608.979 315.536L598.113 341.43L527.285 169.444L495.895 153.141L438.75 94.6401Z" fill="url(#paint2_linear)"/>
<path d="M430.794 109.504L438.751 94.6401L498.46 149.391L532.293 167.321L587.071 292.512L612.043 312.684L639.432 413.541L793.695 499.67H502L499 439.67L315 456.612L431 342.149L322 390.083L386 342.149V331.818L407 306.5L349.5 342.149L420.5 238.5L407 220L415 200.5L451.5 181.5L411.863 184.711L443 149.391L431 147.108L445 140.083L423 143.802L426.5 140.083L422.5 140.496L447.5 126.446L420.5 130.579L422.5 126.446L424 123.554L428 115.289L430.794 109.504Z" fill="#015E70"/>
<path d="M639.673 165.451L580.265 261.083L500.174 359.363L390.599 492.056H654.195V474.518V453.34V409.991L663.437 293.843L650.675 233.949L639.673 165.451Z" fill="white"/>
<path d="M639.673 165.451L580.265 261.083L500.174 359.363L390.599 492.056H654.195V474.518V453.34V409.991L663.437 293.843L650.675 233.949L639.673 165.451Z" fill="url(#paint3_linear)"/>
<path d="M634.811 179.19L639.673 165.451L651.051 183.964L654.729 185.617V188.592L662.753 198.179L662.085 200.823L671.113 210.08L674.438 217.404L678.399 229.978L691.601 236.265L699.082 254.465L701.722 275.623L714.484 289.872L731.633 330.313L761.058 350.129L782.693 392.454L801.516 411.072L838.5 436.787L826.259 499.667H577.185L615.602 452.639L638.439 436.787L638.013 430.182H633.957L627.128 436.787L619.017 430.182L581.026 452.639L591.058 430.182L645.91 362.018L595.227 387.159L611.069 365.981L633.512 337.854L645.91 326.272L654.729 316.345L623.926 330.313L603.588 337.854L623.926 310.058L641.874 285.571L627.128 289.872L628.835 280.276L595.227 292.851L637.913 229.978L641.874 217.404L624.271 223.36L641.874 196.888L638.793 198.179L635.273 200.528L637.913 194.902L639.673 191.593V188.592V186.96L628.835 193.456L638.439 180.775L636.593 181.335L633.512 182.659L634.811 179.19Z" fill="#015E70"/>
<path d="M1440 500H0V371.901L75.5968 388.609C77.4637 389.022 79.3923 389.073 81.2787 388.762L119.832 382.393C121.697 382.085 123.61 382.311 125.351 383.046L182.243 407.065C183.535 407.61 184.996 407.588 186.27 407.004L210.572 395.875C211.944 395.247 213.44 394.937 214.948 394.969L254.331 395.804C255.092 395.82 255.848 395.923 256.586 396.11L324.277 413.337L446.016 426.566C447.892 426.77 449.787 426.439 451.483 425.611L493.875 404.914C495.296 404.22 496.862 403.873 498.443 403.901L531.479 404.499C533.763 404.54 535.992 403.798 537.796 402.396L551.433 391.799C553.344 390.314 556.044 390.411 557.844 392.029L569.761 402.746C571.551 404.355 573.861 405.265 576.267 405.308L607.57 405.874C608.268 405.887 608.963 405.972 609.643 406.13L733.844 434.859C735.029 435.133 736.254 435.188 737.459 435.023L838.826 421.087C839.632 420.976 840.449 420.964 841.259 421.051L894.369 426.77C895.034 426.842 895.705 426.847 896.37 426.784L1140.47 403.973C1141.29 403.897 1142.1 403.719 1142.87 403.445L1201.53 382.714C1203 382.193 1204.58 382.025 1206.13 382.224L1290 392.975L1354.59 409.583C1356.49 410.071 1358.49 409.991 1360.34 409.353L1440 381.921V405.893V500Z" fill="#0A4E5B"/>
<defs>
<linearGradient id="paint0_linear" x1="528" y1="313.5" x2="820.323" y2="-21.7884" gradientUnits="userSpaceOnUse">
<stop stop-color="#0E7D8A"/>
<stop offset="1" stop-color="#5FFBF1"/>
</linearGradient>
<linearGradient id="paint1_linear" x1="759" y1="473.5" x2="1072.8" y2="135.66" gradientUnits="userSpaceOnUse">
<stop stop-color="#02768C" stop-opacity="0.96"/>
<stop offset="0.978424" stop-color="#65EDED"/>
</linearGradient>
<linearGradient id="paint2_linear" x1="1" y1="496" x2="668.637" y2="-42.9529" gradientUnits="userSpaceOnUse">
<stop offset="0.17627" stop-color="#1B8593"/>
<stop offset="0.697917" stop-color="#65EDED"/>
</linearGradient>
<linearGradient id="paint3_linear" x1="417" y1="492" x2="664.965" y2="154.868" gradientUnits="userSpaceOnUse">
<stop stop-color="#0E7D8A"/>
<stop offset="1" stop-color="#59DDDF"/>
</linearGradient>
</defs>
</svg>
